<?xml version="1.0" encoding="UTF-8"?>
<svg id="Layer_1" data-name="Layer 1" xmlns="http://www.w3.org/2000/svg" viewBox="0 0 1080 1080">
  <defs>
    <style>
      .cls-1 {
        fill: #1c8642;
      }

      .cls-2 {
        fill: #151514;
      }
    </style>
  </defs>
  <g>
    <path class="cls-2" d="M104.19,682.51l-30.9-7.39c-18.97-4.54-27.45-22.37-21.2-48.5,6.25-26.13,21.89-38.19,40.85-33.65l5.53,1.32-4.96,20.73-3.89-.93c-9.17-2.19-16.73,3.3-19.91,16.62-3.4,14.19,.7,23.14,9.87,25.34l27.64,6.61c9.17,2.19,16.85-3.8,20.24-18,3.22-13.44-1.03-21.76-10.21-23.96l-3.89-.93,4.96-20.73,5.53,1.32c18.97,4.54,27.45,22.37,21.23,48.37-6.25,26.13-21.92,38.32-40.89,33.78Z"/>
    <path class="cls-2" d="M138.87,562.53l-27.5-15.91c-16.88-9.77-19.91-29.28-6.13-53.09,13.78-23.81,32.21-30.9,49.09-21.13l27.5,15.91c16.88,9.77,19.91,29.28,6.2,52.98-13.78,23.81-32.27,31.01-49.15,21.25Zm31.47-57.74l-24.59-14.23c-8.16-4.72-16.97-1.61-24.8,11.91-7.89,13.64-6.26,22.94,1.9,27.66l24.59,14.23c8.16,4.72,16.97,1.61,24.86-12.02,7.89-13.64,6.2-22.83-1.96-27.55Z"/>
    <path class="cls-2" d="M248.14,408.88l36.37,14.97-14.95,14.45-33.84-13.28-15.23,14.72,22.98,23.78-14.4,13.91-63.72-65.95,32.42-31.32c14.12-13.64,30.4-14.82,42.33-2.47l2.33,2.41c8.17,8.45,10,18.71,5.72,28.78Zm-40.22,17.85l18.95-18.31c4.74-4.58,5.65-9.77,1.79-13.76l-3.59-3.72c-3.86-3.99-8.99-3.35-13.72,1.23l-19.04,18.4,15.62,16.16Z"/>
    <path class="cls-2" d="M333.63,288.17l43.79,80.57-17.14,9.31-59.75-31.76,26.95,49.59-17.14,9.31-43.79-80.57,17.14-9.31,59.87,31.99-27.08-49.82,17.14-9.31Z"/>
    <path class="cls-2" d="M412.67,280.57l4.68,19.46,41.94-10.09,4.23,17.58-41.94,10.09,4.08,16.95,46.96-11.3,4.23,17.58-66.43,15.98-21.45-89.16,66.43-15.98,4.23,17.58-46.97,11.3Z"/>
    <path class="cls-2" d="M570.34,302.56l15.03,36.34-20.79-.42-14.45-33.36-21.18-.42-.66,33.06-20.01-.4,1.83-91.68,45.07,.9c19.63,.39,31.94,11.1,31.6,28.28l-.07,3.36c-.23,11.75-6.22,20.29-16.37,24.35Zm-41.02-15.93l26.34,.53c6.59,.13,10.91-2.88,11.02-8.43l.1-5.16c.11-5.55-3.96-8.73-10.54-8.87l-26.47-.53-.45,22.47Z"/>
    <path class="cls-2" d="M622.48,315.03l.85-2.85,19.18,5.73-1.03,3.46c-2.11,7.05,6.4,15.12,17.91,18.56,8.29,2.48,18.95,2.43,21.32-5.49,5.1-17.08-55.94-19.4-45.78-53.43,4.07-13.61,17.67-23.97,44.53-15.95,26.11,7.8,34,23.36,29.16,39.57l-.92,3.09-19.18-5.73,.92-3.09c1.89-6.31-4.88-13.45-15.52-16.63-9.28-2.77-17.83-1.69-19.68,4.5-3.95,13.24,55.79,19.9,45.85,53.19-4.62,15.47-21.37,24.62-46.49,17.12-25.24-7.54-36.29-24.72-31.11-42.05Z"/>
    <path class="cls-2" d="M818.69,354.09l-24.49-14.91-38.28,62.88-17.1-10.41,38.28-62.88-24.6-14.98,9.4-15.44,66.19,40.29-9.4,15.44Z"/>
    <path class="cls-2" d="M823.55,412.97l23.08-21.84c14.17-13.4,33.74-10.76,52.65,9.22,18.91,19.98,20.47,39.67,6.3,53.07l-23.08,21.84c-14.17,13.4-33.74,10.76-52.56-9.12-18.91-19.98-20.56-39.76-6.39-53.17Zm46.41,46.6l20.64-19.53c6.85-6.48,6.37-15.81-4.37-27.16-10.83-11.45-20.21-12.53-27.06-6.05l-20.64,19.53c-6.85,6.48-6.37,15.81,4.46,27.26,10.83,11.45,20.12,12.43,26.97,5.95Z"/>
    <path class="cls-2" d="M996.08,549.28l-81.48,42.07-8.95-17.33,33.03-59.06-50.15,25.9-8.95-17.33,81.48-42.07,8.95,17.33-33.26,59.18,50.38-26.01,8.95,17.33Z"/>
    <path class="cls-2" d="M1001.99,628.5l-19.56,4.26,9.19,42.15-17.67,3.85-9.19-42.15-17.04,3.71,10.29,47.2-17.67,3.85-14.56-66.75,89.6-19.54,14.56,66.76-17.67,3.85-10.29-47.2Z"/>
  </g>
  <g>
    <path class="cls-2" d="M282.65,797.2l-8.84,36.3h-12.12l-5.16-21.88-5.21,21.88h-12.11l-8.85-36.3h8.44l6.8,29.7,6.75-29.7h7.82l7.26,29.86,6.8-29.86h8.44Z"/>
    <path class="cls-2" d="M300.75,797.25h7.92v36.3h-7.92v-36.3Z"/>
    <path class="cls-2" d="M359.24,797.25v36.3h-7.72l-14.77-22.34v22.34h-7.72v-36.3h7.72l14.77,22.44v-22.44h7.72Z"/>
    <path class="cls-2" d="M438.28,821.38v2.1c0,5.83-4.65,10.07-11.14,10.07h-19.42v-36.3h18.35c6.49,0,11.19,3.83,11.19,9.05v2.61c0,1.99-.97,4.04-2.76,5.57,2.4,1.64,3.78,4.29,3.78,6.9Zm-22.65-17.23v7.57h10.43c1.64,0,3.27-1.02,3.27-2.71v-2.56c0-1.38-1.64-2.3-3.22-2.3h-10.48Zm14.72,17.13c0-1.53-1.28-2.71-3.22-2.71h-11.5v8.08h11.45c1.99,0,3.27-1.28,3.27-2.81v-2.56Z"/>
    <path class="cls-2" d="M457.15,821.69v-24.44h7.92v23.77c0,3.73,3.02,6.13,8.54,6.13s8.54-2.4,8.54-6.13v-23.77h7.93v24.44c0,7.72-6.08,12.63-16.41,12.63s-16.51-4.91-16.51-12.63Z"/>
    <path class="cls-2" d="M509.91,797.25h7.92v36.3h-7.92v-36.3Z"/>
    <path class="cls-2" d="M565.74,826.39v7.16h-27.55v-36.3h7.92v29.14h19.63Z"/>
    <path class="cls-2" d="M616.4,809.88v11.04c0,7.72-6.08,12.63-16.15,12.63h-16.36v-36.3h16.31c10.12,0,16.21,4.91,16.21,12.63Zm-7.92,.66c0-3.73-2.81-6.14-7.72-6.14h-8.95v21.98h8.9c4.96,0,7.77-2.4,7.77-6.14v-9.71Z"/>
    <path class="cls-2" d="M663.18,821.89v-1.18h7.92v1.43c0,2.91,4.14,5.01,8.9,5.01,3.43,0,7.46-1.23,7.46-4.5,0-7.06-23.41-1.02-23.41-15.08,0-5.62,3.99-11.09,15.08-11.09s15.54,5.01,15.54,11.71v1.28h-7.92v-1.28c0-2.61-3.37-4.55-7.77-4.55-3.83,0-6.95,1.38-6.95,3.94,0,5.47,23.42,1.23,23.42,14.98,0,6.39-5.32,11.76-15.7,11.76s-16.56-5.26-16.56-12.42Z"/>
    <path class="cls-2" d="M722.54,804.41v7.92h17.08v7.16h-17.08v6.9h19.12v7.16h-27.04v-36.3h27.04v7.16h-19.12Z"/>
    <path class="cls-2" d="M790.84,797.25v36.3h-7.72l-14.77-22.34v22.34h-7.72v-36.3h7.72l14.77,22.44v-22.44h7.72Z"/>
    <path class="cls-2" d="M843.71,809.88v11.04c0,7.72-6.08,12.63-16.15,12.63h-16.36v-36.3h16.31c10.12,0,16.21,4.91,16.21,12.63Zm-7.92,.66c0-3.73-2.81-6.14-7.72-6.14h-8.95v21.98h8.9c4.96,0,7.77-2.4,7.77-6.14v-9.71Z"/>
  </g>
  <path class="cls-1" d="M888.46,712.88h-318.02l.16-.16h-17.33v-20.21h0v-214.96h56.9c2.24,0,4.05-1.81,4.05-4.05v-24.37c0-2.24-1.81-4.05-4.05-4.05h-56.9v-58c0-2.41-1.95-4.36-4.36-4.36h-23.75c-2.41,0-4.36,1.95-4.36,4.36v58h-56.9c-2.24,0-4.05,1.81-4.05,4.05v24.37c0,2.24,1.81,4.05,4.05,4.05h56.9v235.33H185.6c-4.77,0-8.63,3.87-8.63,8.63v15.21c0,4.77,3.87,8.63,8.63,8.63H505.25c6.6,10.63,18.35,17.74,31.78,17.74s25.18-7.1,31.78-17.74h319.65c4.77,0,8.63-3.87,8.63-8.63v-15.21c0-4.77-3.87-8.63-8.63-8.63Z"/>
  <rect class="cls-1" x="527.82" y="627.98" width="298.19" height="23.82" rx="9.16" ry="9.16" transform="translate(-229.26 424.19) rotate(-30)"/>
  <rect class="cls-1" x="480.14" y="579.45" width="273.97" height="23.82" rx="9.16" ry="9.16" transform="translate(-203.57 830.13) rotate(-60)"/>
  <rect class="cls-1" x="248.95" y="630.9" width="298.19" height="23.82" rx="9.16" ry="9.16" transform="translate(421.36 1398.53) rotate(-150)"/>
  <rect class="cls-1" x="319.11" y="581.36" width="276.3" height="23.82" rx="9.16" ry="9.16" transform="translate(172.09 1285.91) rotate(-120)"/>
</svg>